<?xml version="1.0" standalone="no"?><!DOCTYPE svg PUBLIC "-//W3C//DTD SVG 1.1//EN" "http://www.w3.org/Graphics/SVG/1.1/DTD/svg11.dtd"><svg t="1657786646671" class="icon" viewBox="0 0 1024 1024" version="1.1" xmlns="http://www.w3.org/2000/svg" p-id="4475" xmlns:xlink="http://www.w3.org/1999/xlink" width="1200" height="1200"><defs><style type="text/css"></style></defs><path d="M854.92 615.2h59.96v59.95h-59.96z" fill="#333333" p-id="4476"></path><path d="M854.92 555.25h59.96v59.96h-59.96zM854.92 495.3h59.96v59.95h-59.96zM854.92 375.4h59.96v59.95h-59.96zM854.92 315.44h59.96v59.96h-59.96z" fill="#333333" p-id="4477"></path><path d="M854.92 255.5h59.96v59.95h-59.96zM794.96 735.1h59.96v59.96h-59.96zM794.96 615.2h59.96v59.95h-59.96z" fill="#333333" p-id="4478"></path><path d="M794.96 555.25h59.96v59.96h-59.96zM794.96 495.3h59.96v59.95h-59.96z" fill="#E5E5E5" p-id="4479"></path><path d="M794.96 435.34h59.96v59.96h-59.96z" fill="#333333" p-id="4480"></path><path d="M794.96 375.4h59.96v59.95h-59.96zM794.96 315.44h59.96v59.96h-59.96z" fill="#E5E5E5" p-id="4481"></path><path d="M794.96 255.5h59.96v59.95h-59.96z" fill="#E5E5E5" p-id="4482"></path><path d="M794.96 195.54h59.96v59.96h-59.96zM735.02 795.06h59.95v59.95h-59.95z" fill="#333333" p-id="4483"></path><path d="M735.02 735.1h59.95v59.96h-59.95z" fill="#F9F9F9" p-id="4484"></path><path d="M735.02 675.15h59.95v59.96h-59.95z" fill="#333333" p-id="4485"></path><path d="M735.02 615.2h59.95v59.95h-59.95z" fill="#E5E5E5" p-id="4486"></path><path d="M735.02 555.25h59.95v59.96h-59.95zM735.02 495.3h59.95v59.95h-59.95zM735.02 435.34h59.95v59.96h-59.95z" fill="#E5E5E5" p-id="4487"></path><path d="M735.02 375.4h59.95v59.95h-59.95zM735.02 315.44h59.95v59.96h-59.95z" fill="#E5E5E5" p-id="4488"></path><path d="M735.02 255.5h59.95v59.95h-59.95z" fill="#E5E5E5" p-id="4489"></path><path d="M735.02 195.54h59.95v59.96h-59.95zM675.06 735.1h59.96v59.96h-59.96z" fill="#333333" p-id="4490"></path><path d="M675.06 675.15h59.96v59.96h-59.96z" fill="#E5E5E5" p-id="4491"></path><path d="M675.06 615.2h59.96v59.95h-59.96z" fill="#333333" p-id="4492"></path><path d="M675.06 555.25h59.96v59.96h-59.96zM675.06 495.3h59.96v59.95h-59.96zM675.06 435.34h59.96v59.96h-59.96z" fill="#F9F9F9" p-id="4493"></path><path d="M675.06 375.4h59.96v59.95h-59.96z" fill="#F9F9F9" p-id="4494"></path><path d="M675.06 315.44h59.96v59.96h-59.96z" fill="#E5E5E5" p-id="4495"></path><path d="M675.06 255.5h59.96v59.95h-59.96zM615.12 795.06h59.95v59.95h-59.95z" fill="#333333" p-id="4496"></path><path d="M615.12 735.1h59.95v59.96h-59.95z" fill="#333333" p-id="4497"></path><path d="M615.12 675.15h59.95v59.96h-59.95z" fill="#E5E5E5" p-id="4498"></path><path d="M615.12 615.2h59.95v59.95h-59.95z" fill="#F9F9F9" p-id="4499"></path><path d="M615.12 555.25h59.95v59.96h-59.95zM615.12 495.3h59.95v59.95h-59.95zM615.12 435.34h59.95v59.96h-59.95z" fill="#F9F9F9" p-id="4500"></path><path d="M615.12 375.4h59.95v59.95h-59.95z" fill="#F9F9F9" p-id="4501"></path><path d="M615.12 315.44h59.95v59.96h-59.95z" fill="#E5E5E5" p-id="4502"></path><path d="M615.12 255.5h59.95v59.95h-59.95zM555.16 795.06h59.96v59.95h-59.96z" fill="#333333" p-id="4503"></path><path d="M555.16 735.1h59.96v59.96h-59.96z" fill="#F9F9F9" p-id="4504"></path><path d="M555.16 675.15h59.96v59.96h-59.96z" fill="#F9F9F9" p-id="4505"></path><path d="M555.16 615.2h59.96v59.95h-59.96z" fill="#F9F9F9" p-id="4506"></path><path d="M555.16 555.25h59.96v59.96h-59.96zM555.16 495.3h59.96v59.95h-59.96zM555.16 435.34h59.96v59.96h-59.96z" fill="#F9F9F9" p-id="4507"></path><path d="M555.16 375.4h59.96v59.95h-59.96z" fill="#F9F9F9" p-id="4508"></path><path d="M555.16 315.44h59.96v59.96h-59.96zM495.21 795.06h59.95v59.95h-59.95z" fill="#333333" p-id="4509"></path><path d="M495.21 735.1h59.95v59.96h-59.95z" fill="#F9F9F9" p-id="4510"></path><path d="M495.21 675.15h59.95v59.96h-59.95z" fill="#F9F9F9" p-id="4511"></path><path d="M495.21 615.2h59.95v59.95h-59.95z" fill="#F9F9F9" p-id="4512"></path><path d="M495.21 555.25h59.95v59.96h-59.95zM495.21 495.3h59.95v59.95h-59.95zM495.21 435.34h59.95v59.96h-59.95z" fill="#F9F9F9" p-id="4513"></path><path d="M495.21 375.4h59.95v59.95h-59.95z" fill="#333333" p-id="4514"></path><path d="M495.21 315.44h59.95v59.96h-59.95z" fill="#FFFFFF" p-id="4515"></path><path d="M435.26 795.06h59.96v59.95h-59.96z" fill="#333333" p-id="4516"></path><path d="M435.26 735.1h59.96v59.96h-59.96z" fill="#333333" p-id="4517"></path><path d="M435.26 675.15h59.96v59.96h-59.96z" fill="#F9F9F9" p-id="4518"></path><path d="M435.26 615.2h59.96v59.95h-59.96z" fill="#F9F9F9" p-id="4519"></path><path d="M435.26 555.25h59.96v59.96h-59.96zM435.26 495.3h59.96v59.95h-59.96zM435.26 435.34h59.96v59.96h-59.96z" fill="#F9F9F9" p-id="4520"></path><path d="M435.26 375.4h59.96v59.95h-59.96z" fill="#E5E5E5" p-id="4521"></path><path d="M435.26 315.44h59.96v59.96h-59.96zM375.31 735.1h59.95v59.96h-59.95z" fill="#333333" p-id="4522"></path><path d="M375.31 675.15h59.95v59.96h-59.95z" fill="#F9F9F9" p-id="4523"></path><path d="M375.31 615.2h59.95v59.95h-59.95z" fill="#F9F9F9" p-id="4524"></path><path d="M375.31 555.25h59.95v59.96h-59.95zM375.31 495.3h59.95v59.95h-59.95zM375.31 435.34h59.95v59.96h-59.95z" fill="#F9F9F9" p-id="4525"></path><path d="M375.31 375.4h59.95v59.95h-59.95z" fill="#FFFFFF" p-id="4526"></path><path d="M375.31 255.5h59.95v59.95h-59.95zM315.36 675.15h59.96v59.96h-59.96z" fill="#333333" p-id="4527"></path><path d="M315.36 615.2h59.96v59.95h-59.96z" fill="#333333" p-id="4528"></path><path d="M315.36 555.25h59.96v59.96h-59.96z" fill="#333333" p-id="4529"></path><path d="M315.36 495.3h59.96v59.95h-59.96zM315.36 435.34h59.96v59.96h-59.96z" fill="#FFFFFF" p-id="4530"></path><path d="M315.36 375.4h59.96v59.95h-59.96z" fill="#333333" p-id="4531"></path><path d="M315.36 315.44h59.96v59.96h-59.96z" fill="#FFFFFF" p-id="4532"></path><path d="M315.36 255.5h59.96v59.95h-59.96zM255.41 555.25h59.95v59.96h-59.95zM255.41 495.3h59.95v59.95h-59.95z" fill="#333333" p-id="4533"></path><path d="M255.41 435.34h59.95v59.96h-59.95z" fill="#FFFFFF" p-id="4534"></path><path d="M255.41 375.4h59.95v59.95h-59.95zM255.41 315.44h59.95v59.96h-59.95z" fill="#FFFFFF" p-id="4535"></path><path d="M255.41 255.5h59.95v59.95h-59.95zM195.46 495.3h59.96v59.95h-59.96zM195.46 435.34h59.96v59.96h-59.96z" fill="#333333" p-id="4536"></path><path d="M195.46 375.4h59.96v59.95h-59.96zM195.46 315.44h59.96v59.96h-59.96z" fill="#333333" p-id="4537"></path><path d="M135.51 435.34h59.95v59.96h-59.95z" fill="#FF8A61" p-id="4538"></path><path d="M135.51 375.4h59.95v59.95h-59.95z" fill="#FF5F5F" p-id="4539"></path><path d="M75.55 375.4h59.96v59.95H75.55z" fill="#FF8080" p-id="4540"></path></svg>