<?xml version="1.0" standalone="no"?><!DOCTYPE svg PUBLIC "-//W3C//DTD SVG 1.1//EN" "http://www.w3.org/Graphics/SVG/1.1/DTD/svg11.dtd"><svg t="1648356402151" class="icon" viewBox="0 0 1024 1024" version="1.1" xmlns="http://www.w3.org/2000/svg" p-id="2076" xmlns:xlink="http://www.w3.org/1999/xlink" width="200" height="200"><defs><style type="text/css"></style></defs><path d="M1024 910.222222a113.777778 113.777778 0 0 1-113.777778 113.777778H113.777778a113.777778 113.777778 0 0 1-113.777778-113.777778v-256c0-62.833778 22.499556-85.333333 85.333333-85.333333h853.333334c62.833778 0 85.333333 22.499556 85.333333 85.333333v256z" fill="#D99E82" p-id="2077"></path><path d="M711.111111 568.888889a199.111111 199.111111 0 1 1-398.222222 0h398.222222z" fill="#662113" p-id="2078"></path><path d="M113.777778 1024h796.444444a113.777778 113.777778 0 0 0 113.777778-113.777778H0a113.777778 113.777778 0 0 0 113.777778 113.777778z" fill="#C1694F" p-id="2079"></path><path d="M759.921778 227.555556h-136.049778V56.888889a56.888889 56.888889 0 0 0-56.888889-56.888889h-113.806222a56.888889 56.888889 0 0 0-56.860445 56.888889v170.666667H260.209778c-34.787556 0-43.121778 17.720889-18.517334 42.353777l223.658667 223.658667c24.604444 24.604444 64.853333 24.604444 89.486222 0l223.658667-223.658667C803.043556 245.276444 794.737778 227.555556 759.921778 227.555556z" fill="#77B255" p-id="2080"></path></svg>