<?xml version="1.0" standalone="no"?><!DOCTYPE svg PUBLIC "-//W3C//DTD SVG 1.1//EN" "http://www.w3.org/Graphics/SVG/1.1/DTD/svg11.dtd"><svg t="1648356702946" class="icon" viewBox="0 0 1024 1024" version="1.1" xmlns="http://www.w3.org/2000/svg" p-id="2349" xmlns:xlink="http://www.w3.org/1999/xlink" width="200" height="200"><defs><style type="text/css"></style></defs><path d="M437.527273 735.418182c-101.115345 0-186.181818 36.947782-186.181818 97.745454 0 60.797673 85.066473 97.745455 186.181818 97.745455s186.181818-36.947782 186.181818-97.745455c0-60.1088-83.139491-96.907636-182.737455-97.726836L437.527273 735.418182z m0 55.854545c38.251055 0 73.728 7.140073 98.955636 19.139491 10.984727 5.213091 19.688727 10.984727 24.129164 16.542255 2.848582 3.584 2.848582 9.281164 0 12.418327-5.0176 5.510982-13.153745 11.319855-24.138473 16.542255C511.255273 867.923782 475.787636 875.054545 437.527273 875.054545s-73.728-7.140073-98.955637-19.13949c-10.984727-5.213091-19.539782-10.984727-24.129163-16.542255-2.950982-3.574691-3.826036-8.201309 0-12.418327 5.008291-5.510982 13.153745-11.319855 24.138472-16.542255C363.799273 798.403491 399.266909 791.272727 437.527273 791.272727z" fill="#C5EAFD" p-id="2350"></path><path d="M600.436364 567.854545C481.559273 567.854545 381.672727 615.740509 381.672727 688.872727s99.886545 121.018182 218.763637 121.018182S819.2 762.004945 819.2 688.872727c0-72.387491-97.875782-120.050036-215.170327-120.999563L600.436364 567.854545z m0 60.509091c90.233018 0 159.865018 33.3824 159.865018 60.509091s-69.632 60.509091-159.865018 60.509091c-90.233018 0-159.865018-33.3824-159.865019-60.509091s69.632-60.509091 159.865019-60.509091z" fill="#91D3FD" p-id="2351"></path><path d="M390.981818 390.981818c-147.409455 0-269.963636 51.535127-269.963636 130.327273s122.554182 130.327273 269.963636 130.327273 269.963636-51.535127 269.963637-130.327273c0-78.010182-120.1152-129.293964-265.551128-130.308655L390.981818 390.981818z m0 58.861382c117.6576 0 209.975855 38.818909 209.975855 71.465891 0 32.656291-92.318255 71.465891-209.975855 71.465891-117.6576 0-209.975855-38.818909-209.975854-71.465891 0-32.302545 90.298182-70.618764 206.103272-71.456582l3.872582-0.009309z" fill="#6EA5F7" p-id="2352"></path><path d="M539.927273 158.254545c-189.197964 0-344.436364 58.786909-344.436364 148.945455 0 90.158545 155.2384 148.945455 344.436364 148.945455s344.436364-58.786909 344.436363-148.945455c0-90.158545-155.2384-148.945455-344.436363-148.945455z m0 59.578182c81.184582 0 156.941964 12.129745 211.968 32.9728 48.295564 18.283055 72.936727 40.3456 72.936727 56.394473 0 16.048873-24.641164 38.111418-72.936727 56.394473C696.878545 384.437527 621.111855 396.567273 539.927273 396.567273s-156.941964-12.129745-211.968-32.9728c-48.295564-18.283055-72.936727-40.3456-72.936728-56.394473 0-16.048873 24.641164-38.111418 72.936728-56.394473C382.976 229.962473 458.742691 217.832727 539.927273 217.832727z" fill="#597BE1" p-id="2353"></path><path d="M889.018182 516.654545m-32.581818 0a32.581818 32.581818 0 1 0 65.163636 0 32.581818 32.581818 0 1 0-65.163636 0Z" fill="#FFB07E" p-id="2354"></path><path d="M158.254545 111.709091m-37.236363 0a37.236364 37.236364 0 1 0 74.472727 0 37.236364 37.236364 0 1 0-74.472727 0Z" fill="#FFB07E" p-id="2355"></path><path d="M134.981818 730.763636m-23.272727 0a23.272727 23.272727 0 1 0 46.545454 0 23.272727 23.272727 0 1 0-46.545454 0Z" fill="#FFB07E" p-id="2356"></path></svg>